<?xml version="1.0" encoding="UTF-8" standalone="no"?>
<!-- Uploaded to: SVG Repo, www.svgrepo.com, Generator: SVG Repo Mixer Tools -->

<svg
   width="800"
   height="800"
   viewBox="0 0 24 24"
   fill="none"
   version="1.1"
   id="svg10"
   sodipodi:docname="serial-port-white.svg"
   inkscape:version="1.4.3 (0d15f75042, 2025-12-25)"
   xmlns:inkscape="http://www.inkscape.org/namespaces/inkscape"
   xmlns:sodipodi="http://sodipodi.sourceforge.net/DTD/sodipodi-0.dtd"
   xmlns="http://www.w3.org/2000/svg"
   xmlns:svg="http://www.w3.org/2000/svg">
  <defs
     id="defs10" />
  <sodipodi:namedview
     id="namedview10"
     pagecolor="#ffffff"
     bordercolor="#000000"
     borderopacity="0.25"
     inkscape:showpageshadow="2"
     inkscape:pageopacity="0.0"
     inkscape:pagecheckerboard="0"
     inkscape:deskcolor="#d1d1d1"
     inkscape:zoom="1.00375"
     inkscape:cx="363.63636"
     inkscape:cy="395.01868"
     inkscape:window-width="1920"
     inkscape:window-height="1012"
     inkscape:window-x="0"
     inkscape:window-y="0"
     inkscape:window-maximized="1"
     inkscape:current-layer="svg10"
     showguides="true">
    <inkscape:page
       x="0"
       y="0"
       width="24"
       height="24"
       id="page2"
       margin="0"
       bleed="0" />
  </sodipodi:namedview>
  <path
     d="m 7.358635,6.1500623 c 0.41422,0 0.75,-0.3358 0.75,-0.75 0,-0.4142 -0.33578,-0.75 -0.75,-0.75 -0.41421,0 -0.75,0.3358 -0.75,0.75 0,0.4142 0.33579,0.75 0.75,0.75 z"
     fill="#212121"
     id="path1"
     style="fill:#ffffff" />
  <path
     d="m 10.608655,5.4000623 c 0,0.4142 -0.3358,0.75 -0.75002,0.75 -0.41421,0 -0.75,-0.3358 -0.75,-0.75 0,-0.4142 0.33579,-0.75 0.75,-0.75 0.41422,0 0.75002,0.3358 0.75002,0.75 z"
     fill="#212121"
     id="path2"
     style="fill:#ffffff" />
  <path
     d="m 8.608635,8.6500623 c 0.41422,0 0.75,-0.3358 0.75,-0.75 0,-0.4142 -0.33578,-0.75 -0.75,-0.75 -0.41421,0 -0.75,0.3358 -0.75,0.75 0,0.4142 0.33579,0.75 0.75,0.75 z"
     fill="#212121"
     id="path3"
     style="fill:#ffffff" />
  <path
     d="m 11.858655,7.9000623 c 0,0.4142 -0.3358,0.75 -0.75,0.75 -0.4142,0 -0.75002,-0.3358 -0.75002,-0.75 0,-0.4142 0.33582,-0.75 0.75002,-0.75 0.4142,0 0.75,0.3358 0.75,0.75 z"
     fill="#212121"
     id="path4"
     style="fill:#ffffff" />
  <path
     d="m 13.608655,8.6500623 c 0.4142,0 0.75,-0.3358 0.75,-0.75 0,-0.4142 -0.3358,-0.75 -0.75,-0.75 -0.4142,0 -0.75,0.3358 -0.75,0.75 0,0.4142 0.3358,0.75 0.75,0.75 z"
     fill="#212121"
     id="path5"
     style="fill:#ffffff" />
  <path
     d="m 16.858655,7.9000623 c 0,0.4142 -0.3358,0.75 -0.75,0.75 -0.4142,0 -0.75,-0.3358 -0.75,-0.75 0,-0.4142 0.3358,-0.75 0.75,-0.75 0.4142,0 0.75,0.3358 0.75,0.75 z"
     fill="#212121"
     id="path6"
     style="fill:#ffffff" />
  <path
     d="m 12.358655,6.1500623 c 0.4142,0 0.75,-0.3358 0.75,-0.75 0,-0.4142 -0.3358,-0.75 -0.75,-0.75 -0.4142,0 -0.75,0.3358 -0.75,0.75 0,0.4142 0.3358,0.75 0.75,0.75 z"
     fill="#212121"
     id="path7"
     style="fill:#ffffff" />
  <path
     d="m 15.608655,5.4000623 c 0,0.4142 -0.3358,0.75 -0.75,0.75 -0.4142,0 -0.75,-0.3358 -0.75,-0.75 0,-0.4142 0.3358,-0.75 0.75,-0.75 0.4142,0 0.75,0.3358 0.75,0.75 z"
     fill="#212121"
     id="path8"
     style="fill:#ffffff" />
  <path
     d="m 17.358655,6.1500623 c 0.4142,0 0.75,-0.3358 0.75,-0.75 0,-0.4142 -0.3358,-0.75 -0.75,-0.75 -0.4142,0 -0.75,0.3358 -0.75,0.75 0,0.4142 0.3358,0.75 0.75,0.75 z"
     fill="#212121"
     id="path9"
     style="fill:#ffffff" />
  <path
     d="m 5.265665,1.6493923 c -1.77628,0 -3.08659,1.65883 -2.67524,3.38687 l 1.07152,4.5013 c 0.29491,1.2387997 1.40178,2.1131997 2.67525,2.1131997 h 12.03866 c 1.2729,0 2.3794,-0.8736 2.6749,-2.1116997 l 1.0743,-4.5013 c 0.4125,-1.72838 -0.8979,-3.38837 -2.6749,-3.38837 z m -1.21602,3.03947 c -0.18697,-0.78546 0.40862,-1.53947 1.21602,-1.53947 h 14.18449 c 0.8077,0 1.4034,0.75454 1.2159,1.54017 l -1.0743,4.5013 c -0.1343,0.5628 -0.6373,0.9598997 -1.2159,0.9598997 H 6.337195 c -0.57885,0 -1.08197,-0.3974997 -1.21602,-0.9605997 z"
     fill="#212121"
     id="path10"
     style="fill:#ffffff" />
  <text
     xml:space="preserve"
     style="font-size:7.45626px;writing-mode:lr-tb;direction:ltr;fill:#ffffff;stroke-width:0.0254191"
     x="0.39774656"
     y="18.872717"
     id="text1"><tspan
       sodipodi:role="line"
       id="tspan1"
       style="font-size:7.45626px;fill:#ffffff;stroke-width:0.0254191"
       x="0.39774656"
       y="18.872717">SERIAL</tspan></text>
</svg>
