<?xml version="1.0" encoding="UTF-8" standalone="no"?>
<!-- Uploaded to: SVG Repo, www.svgrepo.com, Transformed by: SVG Repo Mixer Tools -->

<svg
   fill="#ffffff"
   width="800px"
   height="800px"
   viewBox="0 0 32 32"
   version="1.1"
   stroke="#ffffff"
   id="svg1"
   sodipodi:docname="ipscan.svg"
   inkscape:version="1.4.3 (0d15f75042, 2025-12-25)"
   xmlns:inkscape="http://www.inkscape.org/namespaces/inkscape"
   xmlns:sodipodi="http://sodipodi.sourceforge.net/DTD/sodipodi-0.dtd"
   xmlns="http://www.w3.org/2000/svg"
   xmlns:svg="http://www.w3.org/2000/svg">
  <defs
     id="defs1" />
  <sodipodi:namedview
     id="namedview1"
     pagecolor="#ffffff"
     bordercolor="#000000"
     borderopacity="0.25"
     inkscape:showpageshadow="2"
     inkscape:pageopacity="0.0"
     inkscape:pagecheckerboard="0"
     inkscape:deskcolor="#d1d1d1"
     inkscape:zoom="1.00375"
     inkscape:cx="402.49066"
     inkscape:cy="429.88792"
     inkscape:window-width="1920"
     inkscape:window-height="1012"
     inkscape:window-x="0"
     inkscape:window-y="0"
     inkscape:window-maximized="1"
     inkscape:current-layer="svg1" />
  <g
     id="SVGRepo_bgCarrier"
     stroke-width="0" />
  <g
     id="SVGRepo_tracerCarrier"
     stroke-linecap="round"
     stroke-linejoin="round" />
  <g
     id="SVGRepo_iconCarrier"
     style="fill:#ffffff"
     transform="matrix(0.85825512,0,0,0.85825512,2.2266095,-0.41458352)">
    <title
       id="title1">network</title>
    <path
       d="m 27,22.25 c -0.831,0.002 -1.598,0.277 -2.215,0.739 l 0.01,-0.007 -3.299,-2.998 c 0.82,-1.097 1.313,-2.479 1.313,-3.977 0,-1.614 -0.572,-3.094 -1.525,-4.249 l 0.009,0.011 3.644,-3.643 c 0.584,0.391 1.302,0.624 2.074,0.624 2.077,0 3.76,-1.683 3.76,-3.76 0,-2.077 -1.683,-3.76 -3.76,-3.76 -2.077,0 -3.76,1.683 -3.76,3.76 0,0.773 0.233,1.491 0.633,2.088 L 23.875,7.064 20.232,10.707 C 19.087,9.763 17.605,9.19 15.988,9.19 15.051,9.19 14.16,9.382 13.35,9.73 L 13.394,9.713 12.362,7.839 C 13.153,7.151 13.65,6.144 13.65,5.02 c 0,-2.06 -1.67,-3.729 -3.729,-3.729 -2.059,0 -3.729,1.67 -3.729,3.729 0,2.06 1.67,3.729 3.729,3.729 0.007,0 0.015,0 0.022,0 H 9.942 C 10.34,8.743 10.72,8.676 11.075,8.555 l -0.026,0.008 1.037,1.883 c -1.757,1.243 -2.89,3.265 -2.894,5.553 V 16 c 0.01,0.697 0.125,1.364 0.33,1.99 L 9.509,17.943 8.086,18.546 C 7.405,17.575 6.291,16.949 5.03,16.949 c -2.056,0 -3.722,1.666 -3.722,3.722 0,2.056 1.666,3.722 3.722,3.722 2.056,0 3.722,-1.666 3.722,-3.722 0,-0.264 -0.027,-0.521 -0.079,-0.769 l 0.004,0.024 1.419,-0.602 c 1.167,2.093 3.367,3.485 5.892,3.485 1.73,0 3.308,-0.654 4.5,-1.728 l -0.006,0.005 3.309,3.007 c -0.335,0.544 -0.535,1.201 -0.539,1.906 V 26 c 0,2.071 1.679,3.75 3.75,3.75 2.071,0 3.75,-1.679 3.75,-3.75 0,-2.071 -1.679,-3.75 -3.75,-3.75 v 0 z M 7.69,5 c 0,-1.243 1.007,-2.25 2.25,-2.25 1.243,0 2.25,1.007 2.25,2.25 0,1.243 -1.007,2.25 -2.25,2.25 v 0 C 8.698,7.248 7.692,6.242 7.69,5 Z M 5,22.92 C 3.758,22.919 2.752,21.913 2.752,20.671 c 0,-1.242 1.007,-2.249 2.249,-2.249 1.242,0 2.248,1.006 2.249,2.248 v 0 C 7.248,21.912 6.242,22.918 5,22.92 Z M 27,2.75 c 1.243,0 2.25,1.007 2.25,2.25 0,1.243 -1.007,2.25 -2.25,2.25 C 25.757,7.25 24.75,6.243 24.75,5 V 5 C 24.752,3.758 25.758,2.752 27,2.75 Z M 10.69,16 c 0,0 0,0 0,-10e-4 0,-2.932 2.377,-5.309 5.309,-5.309 2.932,0 5.309,2.377 5.309,5.309 0,2.932 -2.377,5.309 -5.309,5.309 v 0 C 13.068,21.305 10.693,18.93 10.689,16 v 0 z M 27,28.25 c -1.243,0 -2.25,-1.007 -2.25,-2.25 0,-1.243 1.007,-2.25 2.25,-2.25 1.243,0 2.25,1.007 2.25,2.25 v 0 c -0.002,1.242 -1.008,2.248 -2.25,2.25 z"
       id="path1"
       style="fill:#ffffff" />
  </g>
  <text
     xml:space="preserve"
     style="font-size:8.53333333px;writing-mode:lr-tb;direction:ltr;fill:#ffffff;stroke-width:0.04"
     x="-0.15940219"
     y="31.681194"
     id="text1"><tspan
       sodipodi:role="line"
       id="tspan1"
       style="stroke-width:0.04;font-size:8.53333333px;fill:#ffffff"
       x="-0.15940219"
       y="31.681194">IP SCAN</tspan></text>
</svg>
