<?xml version="1.0" encoding="UTF-8" standalone="no"?>
<svg
   version="1.0"
   width="312pt"
   height="281pt"
   viewBox="0 0 312 281"
   preserveAspectRatio="xMidYMid"
   id="svg20"
   sodipodi:docname="snmp.svg"
   inkscape:version="1.4.3 (0d15f75042, 2025-12-25)"
   xmlns:inkscape="http://www.inkscape.org/namespaces/inkscape"
   xmlns:sodipodi="http://sodipodi.sourceforge.net/DTD/sodipodi-0.dtd"
   xmlns="http://www.w3.org/2000/svg"
   xmlns:svg="http://www.w3.org/2000/svg">
  <defs
     id="defs20" />
  <sodipodi:namedview
     id="namedview20"
     pagecolor="#ffffff"
     bordercolor="#000000"
     borderopacity="0.25"
     inkscape:showpageshadow="2"
     inkscape:pageopacity="0.0"
     inkscape:pagecheckerboard="0"
     inkscape:deskcolor="#d1d1d1"
     inkscape:document-units="pt"
     inkscape:zoom="1.2045"
     inkscape:cx="4.98132"
     inkscape:cy="162.30801"
     inkscape:window-width="1920"
     inkscape:window-height="1012"
     inkscape:window-x="0"
     inkscape:window-y="0"
     inkscape:window-maximized="1"
     inkscape:current-layer="g20" />
  <g
     transform="matrix(0.12773326,0,0,-0.12773326,-2.1909275,318.48207)"
     fill="#000000"
     stroke="none"
     id="g20"
     style="fill:#999999">
    <path
       d="m 1214.5257,2460.9409 c -10.3604,-3.7002 -53.2821,-18.5008 -96.2037,-32.5613 l -77.703,-25.161 133.2051,1.4801 c 131.725,2.22 133.9452,2.22 170.2065,23.6809 74.0029,42.9217 75.4829,41.4416 -22.2008,40.7016 -48.8419,-0.7401 -96.9437,-3.7002 -107.3041,-8.1403 z"
       id="path1"
       style="fill:#ffffff;stroke-width:0.740029" />
    <path
       d="m 1366.2315,2421.7194 c -28.121,-17.7607 -56.2421,-39.9617 -60.6824,-49.582 -6.6601,-12.5805 -9.6203,-80.6631 -9.6203,-257.5299 v -240.5093 l 66.6025,102.124 66.6026,102.1239 v 188.7072 c 0,103.604 -2.2201,187.9673 -5.1801,187.2273 -3.7002,0 -28.8611,-14.8006 -57.7223,-32.5612 z"
       id="path2"
       style="fill:#ffffff;stroke-width:0.740029" />
    <path
       d="m 981.41671,2363.257 c -10.3604,-14.8005 -11.10043,-50.3219 -9.62037,-259.75 2.22009,-229.4088 2.96012,-241.9892 16.28063,-252.3496 11.10039,-8.1404 42.92163,-10.3604 137.64533,-10.3604 110.2642,0 125.0648,1.48 135.4252,13.3205 11.1004,12.5805 12.5805,41.4416 12.5805,261.2301 0,182.787 -2.2201,250.1296 -8.8804,256.7898 -5.9202,5.9202 -48.1018,8.8803 -140.6054,8.8803 -130.245,0 -131.72506,0 -142.82549,-17.7607 z m 251.60969,-48.8418 c 0,-9.6204 -18.5007,-11.1005 -112.4843,-13.3205 -110.2642,-1.4801 -113.2244,-1.4801 -113.2244,13.3205 0,14.8006 2.9602,14.8006 113.2244,13.3205 93.9836,-2.22 112.4843,-3.7002 112.4843,-13.3205 z m 0,-59.2023 c 0,-9.6204 -18.5007,-11.1004 -112.4843,-13.3205 -110.2642,-1.48 -113.2244,-1.48 -113.2244,13.3205 0,14.8006 2.9602,14.8006 113.2244,13.3206 93.9836,-2.2202 112.4843,-3.7002 112.4843,-13.3206 z m 0,-59.2023 c 0,-9.6203 -18.5007,-11.1004 -112.4843,-13.3204 -91.7635,-1.4802 -113.2244,0 -113.2244,8.1402 0,5.9203 2.22,12.5805 5.1802,15.5406 2.9601,2.2201 53.282,3.7001 112.4844,2.9601 90.2834,-2.2201 108.0441,-3.7001 108.0441,-13.3205 z m -25.901,-96.2037 c 0,-17.7607 -19.2408,-28.1211 -31.0812,-16.2806 -11.8404,11.8404 -1.48,31.0812 16.2807,31.0812 9.6203,0 14.8005,-5.1802 14.8005,-14.8006 z"
       id="path3"
       style="fill:#ffffff;stroke-width:0.740029" />
    <path
       d="m 223.20151,2177.3593 c -12.3769,-2.3206 -41.77205,-9.2827 -64.20519,-15.4711 l -40.99849,-11.6034 2.32067,-58.7902 2.32067,-58.7903 30.94226,-12.3769 c 43.31916,-16.2447 341.13841,-17.0183 386.77824,-0.7736 l 30.94226,11.6033 v 61.8846 61.1109 l -34.81004,10.8298 c -34.81004,10.8298 -265.32988,19.3389 -313.29038,12.3769 z"
       id="path4"
       style="fill:#ffffff;stroke-width:0.773556" />
    <path
       d="m 2088.496,2175.4504 c -71.385,-27.7141 -112.5363,-65.5062 -150.3283,-139.4106 -25.1947,-47.8699 -27.7142,-154.5274 -5.8788,-204.0769 49.5496,-113.3761 172.1637,-178.0425 289.7389,-153.6876 126.8133,26.0345 206.5964,123.4539 206.5964,253.6265 -0.8398,100.7787 -55.4283,188.1203 -145.2893,231.7911 -47.0301,23.515 -148.6487,29.3938 -194.8389,11.7575 z m 120.0946,-78.1035 c 36.9522,-36.1124 38.6319,-41.9912 13.4372,-46.1903 -15.1168,-1.6796 -20.1557,-9.238 -21.8354,-29.3938 -2.5195,-24.3548 -5.8788,-27.7141 -26.8743,-27.7141 -20.9956,0 -24.3549,3.3593 -26.8744,27.7141 -1.6796,20.1558 -6.7185,27.7142 -20.9955,29.3938 -10.9177,1.6797 -19.316,5.039 -19.316,7.5584 0,10.0779 52.0691,69.7053 61.3071,69.7053 5.039,0 23.5151,-14.277 41.1513,-31.0734 z m -123.4539,-137.731 33.5929,-34.4327 -36.9522,-31.9133 c -38.6319,-33.5929 -51.2292,-35.2725 -51.2292,-8.3982 0,11.7575 -6.7186,16.7965 -26.8743,18.4761 -22.6753,1.6797 -28.554,6.7186 -30.2337,25.1947 -2.5194,20.1557 0.8399,23.515 26.8744,28.554 21.8354,3.3593 30.2336,9.238 30.2336,20.9955 0,25.1947 19.3159,18.4761 54.5885,-18.4761 z m 230.9513,19.316 c 0,-10.0779 9.238,-17.6363 27.7141,-22.6753 20.9956,-6.7185 26.8743,-12.5973 26.8743,-29.3938 0,-17.6362 -4.1991,-21.8353 -26.8743,-23.515 -20.9956,-1.6796 -27.7141,-6.7186 -27.7141,-18.4761 0,-8.3982 -3.3593,-17.6363 -6.7186,-20.1557 -7.5584,-4.1992 -77.2637,51.2292 -77.2637,62.1468 0,11.7576 60.4672,67.1859 73.0646,67.1859 5.8787,0 10.9177,-6.7186 10.9177,-15.1168 z m -119.2549,-141.9301 c 2.5195,-22.6752 5.8788,-27.7142 23.5151,-27.7142 10.9177,0 20.1557,-2.5194 20.1557,-6.7185 0,-14.277 -52.9088,-68.8655 -67.1858,-68.8655 -14.277,0 -67.1859,54.5885 -67.1859,68.8655 0,2.5194 8.3983,6.7185 19.316,8.3982 14.277,1.6796 19.3159,9.238 20.9955,30.2336 2.5195,24.3549 5.039,27.7142 25.1947,25.1947 18.4761,-1.6796 23.5151,-7.5584 25.1947,-29.3938 z"
       id="path5"
       style="fill:#ffffff;stroke-width:0.839823" />
    <path
       d="m 120.3185,1936.0097 2.32067,-51.8283 30.94226,-11.6033 c 44.09272,-16.2447 342.68552,-16.2447 386.77824,0 l 30.94226,11.6033 2.32067,51.8283 2.32067,51.0547 -44.86628,-12.3769 c -62.65807,-17.0182 -304.0077,-17.0182 -368.21288,0 l -44.86628,12.3769 z"
       id="path6"
       style="fill:#ffffff;stroke-width:0.773556" />
    <path
       d="m 120.3185,1789.034 2.32067,-50.2812 30.94226,-12.3769 c 44.86627,-17.0183 341.91197,-17.0183 386.77824,0 l 30.94226,12.3769 2.32067,50.2812 2.32067,50.2811 -40.99849,-11.6033 c -58.7903,-17.0183 -318.70528,-17.0183 -375.94846,0 l -40.99849,11.6033 z"
       id="path7"
       style="fill:#ffffff;stroke-width:0.773556" />
    <path
       d="m 1181.3348,1679.5166 c 0,-63.1085 16.144,-107.1376 38.1586,-107.1376 22.0146,0 24.9499,29.3528 11.7411,101.267 -11.7411,57.2379 -49.8997,61.6409 -49.8997,5.8706 z"
       id="path8"
       style="fill:#ffffff;stroke-width:1.46764" />
    <path
       d="m 164.17585,1603.4855 c -20.14057,-18.7019 -8.63167,-30.2108 83.43947,-90.6325 66.17614,-43.1584 99.26421,-57.5445 109.33449,-47.4742 11.50889,11.5089 -12.94751,35.9653 -77.68503,82.0009 -99.26421,70.4919 -100.70282,71.9305 -115.08893,56.1058 z"
       id="path9"
       style="fill:#ffffff;stroke-width:1.43861" />
    <path
       d="m 2071.6381,1501.3608 c -82.6502,-61.9876 -103.3127,-85.8291 -89.0079,-101.7233 12.7154,-15.8943 39.7357,-3.1789 127.1542,60.3982 87.4185,63.5771 106.4916,84.2396 92.1867,101.7233 -9.5365,12.7155 -19.0731,22.252 -20.6625,20.6626 0,0 -49.2723,-36.5568 -109.6705,-81.0608 z"
       id="path10"
       style="fill:#ffffff;stroke-width:1.58943" />
    <path
       d="m 1210.6876,1415.3417 c 0,-80.7201 19.0793,-151.1668 38.1586,-151.1668 22.0146,0 26.4175,45.4968 11.7411,136.4904 -11.7411,64.5761 -49.8997,76.3172 -49.8997,14.6764 z"
       id="path11"
       style="fill:#ffffff;stroke-width:1.46764" />
    <path
       d="m 437.51206,1406.3957 c -4.31583,-11.5089 38.84251,-50.3514 120.84338,-107.8959 113.65032,-79.1236 156.80867,-96.3869 156.80867,-60.4217 0,10.0703 -250.31843,188.4582 -263.26593,188.4582 -4.31584,0 -10.07028,-8.6317 -14.38612,-20.1406 z"
       id="path12"
       style="fill:#ffffff;stroke-width:1.43861" />
    <path
       d="m 1760.1104,1272.4833 c -77.8819,-58.8088 -93.7762,-77.8819 -79.4713,-95.3656 14.3048,-17.4837 34.9674,-7.9471 116.0281,52.4511 52.4511,41.3251 98.5445,74.7031 101.7234,76.2925 1.5894,1.5894 -6.3577,11.126 -17.4837,20.6625 -17.4837,14.3049 -42.9146,1.5895 -120.7965,-54.0405 z"
       id="path13"
       style="fill:#ffffff;stroke-width:1.58943" />
    <path
       d="m 1240.0404,1118.8787 c 0,-58.7055 19.0793,-118.8787 38.1586,-118.8787 22.0145,0 26.4174,55.7703 11.7411,114.4758 -11.7411,39.6262 -49.8997,44.0292 -49.8997,4.4029 z"
       id="path14"
       style="fill:#ffffff;stroke-width:1.46764" />
    <path
       d="m 797.16497,1171.902 c -18.70195,-18.7019 -8.63167,-28.7722 94.94834,-99.2642 136.66809,-96.38698 135.22949,-94.94837 143.86119,-70.492 5.7544,12.9475 -28.7722,46.0356 -105.01869,100.7029 -122.28194,84.878 -119.40472,83.4394 -133.79084,69.0533 z"
       id="path15"
       style="fill:#ffffff;stroke-width:1.43861" />
    <path
       d="m 1478.7818,1064.2684 c -42.9145,-31.7886 -81.0607,-60.3982 -82.6502,-61.9876 -3.1788,-1.5895 0,-14.30488 7.9472,-27.0203 11.126,-20.66255 28.6097,-12.71542 103.3127,41.3251 87.4185,63.577 116.0282,106.4916 69.9348,106.4916 -11.126,0 -55.6299,-27.0203 -98.5445,-58.8088 z"
       id="path16"
       style="fill:#ffffff;stroke-width:1.58943" />
    <path
       d="M 303.20622,847.49149 C 230.26611,824.52886 196.49755,782.65584 195.1468,715.1187 c 0,-71.58936 52.67898,-118.86536 167.49211,-149.93244 48.62673,-13.50742 94.55197,-32.41782 102.65644,-43.22376 22.96262,-27.01485 2.70148,-71.58936 -36.47006,-81.04456 -41.87302,-10.80594 -72.9401,5.40296 -91.8505,45.92525 -10.80594,25.66411 -24.31336,29.71633 -83.74604,29.71633 -66.1864,0 -71.58937,-2.70148 -71.58937,-32.41781 0,-43.22377 48.62673,-101.30571 102.65644,-124.26833 58.08194,-24.31337 182.35027,-24.31337 241.78295,0 58.08193,24.31337 101.3057,93.20124 101.3057,159.38764 0,74.29084 -55.38046,122.91758 -178.29804,155.3354 -87.79827,24.31338 -98.60421,29.71634 -98.60421,59.43268 0,27.01485 6.75371,32.41783 40.52228,32.41783 29.71634,0 44.57451,-8.10446 54.02971,-31.06709 10.80594,-25.66411 20.26114,-29.71634 52.67896,-24.31337 21.61188,4.05223 55.38045,8.10446 75.64159,8.10446 32.41782,0 36.47006,4.05223 31.06708,31.06708 -13.50743,51.32823 -58.08194,87.79827 -128.32055,102.65644 -82.39531,18.91041 -97.25348,17.55966 -172.89507,-5.40296 z"
       id="path17"
       style="fill:#ffffff;stroke-width:1.35075" />
    <path
       d="M 708.42903,597.60409 V 340.96298 h 74.29085 74.2908 V 492.24616 644.88008 L 958.31637,492.24616 1059.6221,340.96298 h 67.5372 67.5372 V 597.60409 854.2452 h -67.5372 -66.1864 l -4.0523,-144.52947 -4.0522,-145.88021 -98.60413,145.88021 -97.25359,144.52947 h -74.2908 -74.29085 z"
       id="path18"
       style="fill:#ffffff;stroke-width:1.35075" />
    <path
       d="M 1302.7558,597.60409 V 340.96298 h 60.7834 59.4327 l 4.0522,199.90991 4.0523,198.55918 37.8208,-148.5817 c 71.5893,-282.30522 56.7312,-252.58888 121.5668,-247.18591 l 56.7312,4.05223 49.9775,195.85769 49.9775,195.85769 1.3507,-198.55918 V 340.96298 h 60.7834 60.7835 V 597.60409 854.2452 h -99.955 -99.955 L 1632.337,698.9098 c -20.261,-85.09679 -39.1714,-152.63394 -41.873,-149.93244 -2.7015,2.70148 -16.2088,48.62673 -31.0671,104.00718 -14.8581,55.38045 -33.7685,122.91758 -40.5222,151.28318 l -14.8582,49.97748 h -99.955 -101.3057 z"
       id="path19"
       style="fill:#ffffff;stroke-width:1.35075" />
    <path
       d="M 1978.1272,597.60409 V 340.96298 h 74.2908 74.2909 v 94.55199 94.55199 h 58.0819 c 140.4772,0 212.0666,52.67896 212.0666,158.03689 0,78.34308 -29.7163,132.37278 -82.3953,151.28318 -24.3134,8.10446 -109.4102,14.85817 -189.104,14.85817 h -147.2309 z m 248.5366,126.96981 c 43.2238,-41.87302 8.1045,-99.95496 -60.7834,-99.95496 -36.47,0 -39.1715,4.05223 -39.1715,51.32822 0,28.3656 4.0523,56.7312 9.4552,60.78343 16.2089,17.55965 68.8878,9.4552 90.4997,-12.15669 z"
       id="path20"
       style="fill:#ffffff;stroke-width:1.35075" />
  </g>
</svg>
