<?xml version="1.0" encoding="UTF-8" standalone="no"?>
<svg
   version="1.0"
   width="312pt"
   height="281pt"
   viewBox="0 0 312 281"
   preserveAspectRatio="xMidYMid"
   id="svg20"
   sodipodi:docname="snmp.svg"
   inkscape:version="1.4.3 (0d15f75042, 2025-12-25)"
   xmlns:inkscape="http://www.inkscape.org/namespaces/inkscape"
   xmlns:sodipodi="http://sodipodi.sourceforge.net/DTD/sodipodi-0.dtd"
   xmlns="http://www.w3.org/2000/svg"
   xmlns:svg="http://www.w3.org/2000/svg">
  <defs
     id="defs20" />
  <sodipodi:namedview
     id="namedview20"
     pagecolor="#ffffff"
     bordercolor="#000000"
     borderopacity="0.25"
     inkscape:showpageshadow="2"
     inkscape:pageopacity="0.0"
     inkscape:pagecheckerboard="0"
     inkscape:deskcolor="#d1d1d1"
     inkscape:document-units="pt"
     inkscape:zoom="1.2045"
     inkscape:cx="4.98132"
     inkscape:cy="162.30801"
     inkscape:window-width="1920"
     inkscape:window-height="1012"
     inkscape:window-x="0"
     inkscape:window-y="0"
     inkscape:window-maximized="1"
     inkscape:current-layer="svg20" />
  <g
     transform="matrix(0.12773326,0,0,-0.12773326,-2.1909275,318.48207)"
     fill="#000000"
     stroke="none"
     id="g20"
     style="fill:#ffffff">
    <path
       d="m 1300,2458 c -14,-5 -72,-25 -130,-44 l -105,-34 180,2 c 178,3 181,3 230,32 100,58 102,56 -30,55 -66,-1 -131,-5 -145,-11 z"
       id="path1"
       style="fill:#ffffff" />
    <path
       d="m 1505,2405 c -38,-24 -76,-54 -82,-67 -9,-17 -13,-109 -13,-348 v -325 l 90,138 90,138 v 255 c 0,140 -3,254 -7,253 -5,0 -39,-20 -78,-44 z"
       id="path2"
       style="fill:#ffffff" />
    <path
       d="m 985,2326 c -14,-20 -15,-68 -13,-351 3,-310 4,-327 22,-341 15,-11 58,-14 186,-14 149,0 169,2 183,18 15,17 17,56 17,353 0,247 -3,338 -12,347 -8,8 -65,12 -190,12 -176,0 -178,0 -193,-24 z m 340,-66 c 0,-13 -25,-15 -152,-18 -149,-2 -153,-2 -153,18 0,20 4,20 153,18 127,-3 152,-5 152,-18 z m 0,-80 c 0,-13 -25,-15 -152,-18 -149,-2 -153,-2 -153,18 0,20 4,20 153,18 127,-3 152,-5 152,-18 z m 0,-80 c 0,-13 -25,-15 -152,-18 -124,-2 -153,0 -153,11 0,8 3,17 7,21 4,3 72,5 152,4 122,-3 146,-5 146,-18 z m -35,-130 c 0,-24 -26,-38 -42,-22 -16,16 -2,42 22,42 13,0 20,-7 20,-20 z"
       id="path3"
       style="fill:#ffffff" />
    <path
       d="m 215,2084 c -16,-3 -54,-12 -83,-20 l -53,-15 3,-76 3,-76 40,-16 c 56,-21 441,-22 500,-1 l 40,15 v 80 79 l -45,14 c -45,14 -343,25 -405,16 z"
       id="path4"
       style="fill:#ffffff" />
    <path
       d="m 2009,2076 c -85,-33 -134,-78 -179,-166 -30,-57 -33,-184 -7,-243 59,-135 205,-212 345,-183 151,31 246,147 246,302 -1,120 -66,224 -173,276 -56,28 -177,35 -232,14 z m 143,-93 c 44,-43 46,-50 16,-55 -18,-2 -24,-11 -26,-35 -3,-29 -7,-33 -32,-33 -25,0 -29,4 -32,33 -2,24 -8,33 -25,35 -13,2 -23,6 -23,9 0,12 62,83 73,83 6,0 28,-17 49,-37 z m -147,-164 40,-41 -44,-38 c -46,-40 -61,-42 -61,-10 0,14 -8,20 -32,22 -27,2 -34,8 -36,30 -3,24 1,28 32,34 26,4 36,11 36,25 0,30 23,22 65,-22 z m 275,23 c 0,-12 11,-21 33,-27 25,-8 32,-15 32,-35 0,-21 -5,-26 -32,-28 -25,-2 -33,-8 -33,-22 0,-10 -4,-21 -8,-24 -9,-5 -92,61 -92,74 0,14 72,80 87,80 7,0 13,-8 13,-18 z m -142,-169 c 3,-27 7,-33 28,-33 13,0 24,-3 24,-8 0,-17 -63,-82 -80,-82 -17,0 -80,65 -80,82 0,3 10,8 23,10 17,2 23,11 25,36 3,29 6,33 30,30 22,-2 28,-9 30,-35 z"
       id="path5"
       style="fill:#ffffff" />
    <path
       d="m 82,1772 3,-67 40,-15 c 57,-21 443,-21 500,0 l 40,15 3,67 3,66 -58,-16 c -81,-22 -393,-22 -476,0 l -58,16 z"
       id="path6"
       style="fill:#ffffff" />
    <path
       d="m 82,1582 3,-65 40,-16 c 58,-22 442,-22 500,0 l 40,16 3,65 3,65 -53,-15 c -76,-22 -412,-22 -486,0 l -53,15 z"
       id="path7"
       style="fill:#ffffff" />
    <path
       d="m 1200,1463 c 0,-43 11,-73 26,-73 15,0 17,20 8,69 -8,39 -34,42 -34,4 z"
       id="path8"
       style="fill:#ffffff" />
    <path
       d="m 447,1333 c -14,-13 -6,-21 58,-63 46,-30 69,-40 76,-33 8,8 -9,25 -54,57 -69,49 -70,50 -80,39 z"
       id="path9"
       style="fill:#ffffff" />
    <path
       d="m 1937,1278 c -52,-39 -65,-54 -56,-64 8,-10 25,-2 80,38 55,40 67,53 58,64 -6,8 -12,14 -13,13 0,0 -31,-23 -69,-51 z"
       id="path10"
       style="fill:#ffffff" />
    <path
       d="m 1220,1283 c 0,-55 13,-103 26,-103 15,0 18,31 8,93 -8,44 -34,52 -34,10 z"
       id="path11"
       style="fill:#ffffff" />
    <path
       d="m 637,1196 c -3,-8 27,-35 84,-75 79,-55 109,-67 109,-42 0,7 -174,131 -183,131 -3,0 -7,-6 -10,-14 z"
       id="path12"
       style="fill:#ffffff" />
    <path
       d="m 1741,1134 c -49,-37 -59,-49 -50,-60 9,-11 22,-5 73,33 33,26 62,47 64,48 1,1 -4,7 -11,13 -11,9 -27,1 -76,-34 z"
       id="path13"
       style="fill:#ffffff" />
    <path
       d="m 1240,1081 c 0,-40 13,-81 26,-81 15,0 18,38 8,78 -8,27 -34,30 -34,3 z"
       id="path14"
       style="fill:#ffffff" />
    <path
       d="m 887,1033 c -13,-13 -6,-20 66,-69 95,-67 94,-66 100,-49 4,9 -20,32 -73,70 -85,59 -83,58 -93,48 z"
       id="path15"
       style="fill:#ffffff" />
    <path
       d="m 1564,1003 c -27,-20 -51,-38 -52,-39 -2,-1 0,-9 5,-17 7,-13 18,-8 65,26 55,40 73,67 44,67 -7,0 -35,-17 -62,-37 z"
       id="path16"
       style="fill:#ffffff" />
    <path
       d="m 530,745 c -54,-17 -79,-48 -80,-98 0,-53 39,-88 124,-111 36,-10 70,-24 76,-32 17,-20 2,-53 -27,-60 -31,-8 -54,4 -68,34 -8,19 -18,22 -62,22 -49,0 -53,-2 -53,-24 0,-32 36,-75 76,-92 43,-18 135,-18 179,0 43,18 75,69 75,118 0,55 -41,91 -132,115 -65,18 -73,22 -73,44 0,20 5,24 30,24 22,0 33,-6 40,-23 8,-19 15,-22 39,-18 16,3 41,6 56,6 24,0 27,3 23,23 -10,38 -43,65 -95,76 -61,14 -72,13 -128,-4 z"
       id="path17"
       style="fill:#ffffff" />
    <path
       d="M 830,560 V 370 h 55 55 v 112 113 l 75,-113 75,-112 h 50 50 v 190 190 h -50 -49 l -3,-107 -3,-108 -73,108 -72,107 h -55 -55 z"
       id="path18"
       style="fill:#ffffff" />
    <path
       d="M 1270,560 V 370 h 45 44 l 3,148 3,147 28,-110 c 53,-209 42,-187 90,-183 l 42,3 37,145 37,145 1,-147 V 370 h 45 45 v 190 190 h -74 -74 l -28,-115 c -15,-63 -29,-113 -31,-111 -2,2 -12,36 -23,77 -11,41 -25,91 -30,112 l -11,37 h -74 -75 z"
       id="path19"
       style="fill:#ffffff" />
    <path
       d="M 1770,560 V 370 h 55 55 v 70 70 h 43 c 104,0 157,39 157,117 0,58 -22,98 -61,112 -18,6 -81,11 -140,11 h -109 z m 184,94 c 32,-31 6,-74 -45,-74 -27,0 -29,3 -29,38 0,21 3,42 7,45 12,13 51,7 67,-9 z"
       id="path20"
       style="fill:#ffffff" />
  </g>
</svg>
